<svg width="222" height="200" viewBox="0 0 222 200" fill="none" xmlns="http://www.w3.org/2000/svg">
<path d="M151.267 150.992L189.333 189.333M171.741 101.37C171.741 140.235 140.235 171.741 101.37 171.741C62.5059 171.741 31 140.235 31 101.37C31 62.5059 62.5059 31 101.37 31C140.235 31 171.741 62.5059 171.741 101.37Z" stroke="#24644E" stroke-width="15" stroke-linecap="round" stroke-linejoin="round"/>
<path d="M98.152 123.776L97.308 144.488L97.196 145.728L73.556 144.096C72.076 143.94 70.772 143.292 69.784 142.324C68.676 141.312 67.78 140.084 67.168 138.704L67.14 138.636C66.76 137.736 66.472 136.692 66.332 135.6L66.324 135.54C66.288 135.2 66.268 134.804 66.268 134.404C66.268 133.512 66.372 132.64 66.564 131.804L66.548 131.88C66.8306 130.491 67.0506 129.459 67.208 128.784C67.616 127.312 68.028 126.116 68.504 124.948L68.42 125.184C69.0573 123.459 69.4133 122.468 69.488 122.212C72.4186 122.657 81.9706 123.18 98.144 123.78L98.152 123.776ZM76.364 90.7959L86.496 112.128L78.224 106.952C76.08 109.376 74.02 112.028 72.128 114.808L71.952 115.084C70.544 117.096 69.184 119.404 68.008 121.812L67.872 122.12C66.9706 124.101 66.2306 125.875 65.652 127.44C65.236 128.444 64.876 129.632 64.632 130.864L64.612 130.988L64.388 132.168L53.696 112.076C53.096 111.188 52.724 110.104 52.684 108.932V108.92C52.672 108.764 52.664 108.58 52.664 108.396C52.664 107.636 52.792 106.908 53.028 106.232L53.016 106.28L53.464 105.268C54.784 102.905 56.9226 99.3839 59.88 94.7039L52.012 89.8439L76.364 90.7959ZM145.644 119.896L135.08 140.1C134.644 141.172 133.936 142.06 133.044 142.708L133.028 142.72C132.34 143.264 131.516 143.664 130.62 143.864L130.58 143.872L129.568 144.096C126.904 144.357 122.796 144.577 117.244 144.756L117.692 154L104.748 133.344L116.632 112.968L117.024 122.704C119.868 123.036 123.16 123.228 126.496 123.228C128.768 123.228 131.02 123.14 133.244 122.968L132.948 122.988C136.448 122.756 139.708 122.092 142.796 121.048L142.524 121.128L145.644 119.896ZM101.476 67.8879C99.716 70.2506 94.744 78.4119 86.56 92.3719L68.732 81.8479L67.664 81.1879L80.328 61.1519C81.128 59.9599 82.288 59.0679 83.652 58.6239L83.696 58.6119C84.74 58.2239 85.944 58.0039 87.2 58.0039C87.552 58.0039 87.9 58.0199 88.244 58.0559L88.2 58.0519C89.204 58.1399 90.132 58.3759 90.992 58.7359L90.932 58.7119C91.84 59.0799 92.608 59.4799 93.336 59.9359L93.272 59.8999C94.144 60.4839 94.908 61.0959 95.612 61.7639L95.604 61.7559C96.5053 62.5826 97.1813 63.2292 97.632 63.6959C98.0826 64.1626 98.7586 64.9026 99.66 65.9159C100.569 66.9292 101.175 67.5866 101.476 67.8879ZM138.34 85.1639L150.272 105.596C150.76 106.548 151.048 107.672 151.048 108.864C151.048 109.224 151.02 109.58 150.972 109.928L150.976 109.888C150.744 111.456 150.2 112.864 149.404 114.096L149.428 114.056C148.896 114.852 148.284 115.54 147.584 116.128L147.568 116.14C146.936 116.688 146.236 117.208 145.5 117.672L145.428 117.712C144.652 118.172 143.748 118.588 142.804 118.916L142.696 118.948C141.552 119.361 140.672 119.661 140.056 119.848C139.44 120.035 138.473 120.297 137.156 120.636L134.568 121.296C133.291 118.595 128.319 110.415 119.652 96.7559L137.268 85.7799L138.34 85.1639ZM130.292 72.4439L138.284 67.7719L125.904 88.7679L102.316 87.6439L110.816 82.8039C109.396 79.0719 107.976 75.9959 106.38 73.0319L106.596 73.4719C105.204 70.7879 103.792 68.5159 102.232 66.3559L102.344 66.5199C101.051 64.7732 99.84 63.2719 98.712 62.0159C97.896 61.0639 97.032 60.2079 96.104 59.4239L96.072 59.3959L95.116 58.6639L117.896 58.7199C118.084 58.6999 118.3 58.6879 118.524 58.6879C119.484 58.6879 120.396 58.9199 121.196 59.3279L121.164 59.3119C122.032 59.7039 122.764 60.2479 123.364 60.9159L123.368 60.9239L123.988 61.7679C125.452 64.0452 127.553 67.6039 130.292 72.4439Z" fill="#E8B935"/>
<g clip-path="url(#clip0_24_67)">
<path d="M211.503 16.358C210.844 16.0158 205.572 20.071 193.407 22.9093C187.495 24.2885 171.104 28.9928 171.376 52.3608L165 56.1111L166.986 59.5874C173.146 55.6136 190.034 47.8646 207.002 27.9838C207.002 27.9838 204.378 41.1107 174.376 58.3604C184.501 63.6102 198.751 63.6102 209.628 50.8598C220.503 38.1101 211.503 16.358 211.503 16.358Z" fill="#24644E"/>
</g>
<defs>
<clipPath id="clip0_24_67">
<rect width="50" height="50" fill="white" transform="translate(165 14)"/>
</clipPath>
</defs>
</svg>
